<svg xmlns="http://www.w3.org/2000/svg" version="1.1" xmlns:xlink="http://www.w3.org/1999/xlink" xmlns:svgjs="http://svgjs.com/svgjs" width="512" height="512" x="0" y="0" viewBox="0 0 400 400" style="enable-background:new 0 0 512 512" xml:space="preserve" class="hovered-paths"><g><g xmlns="http://www.w3.org/2000/svg" id="Layer_2" data-name="Layer 2"><g id="Layer_1-2" data-name="Layer 1"><g id="y"><rect id="Background" fill="#4ABEED" height="400" rx="95" width="400" data-original="#4abeed" class="hovered-path"></rect><path id="y-2" d="m262.62 103c2.5 0 3.76 1.25 3.76 3.75v139.75c0 14.25-1 22.25-6 31.25-6.5 12.75-23.26 19.25-57 19.25-21 0-38.26-1.25-51.76-4a3.64 3.64 0 0 1 -3.24-4v-23.25c0-2.5 1.24-3.75 3.5-3.75h47c19 0 24-3.75 24-17.5v-1.75a125.67 125.67 0 0 1 -29.5 3.25c-22 0-37.5-4.75-46.5-14.5-8.76-9.75-13.26-25.75-13.26-48v-76.75c0-2.5 1.26-3.75 3.76-3.75h36.24c2.5 0 3.76 1.25 3.76 3.75v67c0 14.25 1.74 23.75 5.24 28 3.76 4.25 11 6.5 22.26 6.5a89.78 89.78 0 0 0 18-1.5v-100c0-2.5 1.24-3.75 3.74-3.75z" fill="#FFFFFF" data-name="y" data-original="#ffffff" class=""></path></g></g></g></g></svg>